<svg version="1.1" xmlns="http://www.w3.org/2000/svg" xmlns:xlink="http://www.w3.org/1999/xlink" width="2751.83896" height="1535.76177" viewBox="-607.91948 -415.38088 2751.83896 1535.76177"><g id="document" fill="#ffffff" fill-rule="nonzero" font-family="none" font-weight="none" font-size="none"></g><g fill="none" fill-rule="nonzero" stroke="none" stroke-width="1" stroke-linecap="butt" stroke-linejoin="miter" stroke-miterlimit="10" font-family="none" font-weight="none" font-size="none"><g id="stage"><g id="layer1-1"><g id="Group-1"><path d="M1561.10161,351.36648c-12,30.43195 -23.64233,60.17566 -35.31714,89.90649c-0.9707,2.47217 -1.90771,5.01538 -3.29468,7.25696c-7.79834,12.604 -24.45679,12.60596 -32.04492,-0.08032c-2.02881,-3.39197 -3.39014,-7.22949 -4.73022,-10.97943c-9.51562,-26.6261 -18.94653,-53.28241 -28.87598,-81.25818c-1.3938,2.77179 -2.49121,4.50378 -3.17676,6.38574c-8.53979,23.44238 -16.9823,46.92023 -25.54541,70.35394c-1.82361,4.9903 -3.65161,10.04388 -6.15112,14.70728c-3.77979,7.05304 -10.19116,10.67364 -18.10046,10.23035c-7.48413,-0.41937 -13.36096,-4.36462 -16.28711,-11.44562c-4.31934,-10.45251 -8.21069,-21.08203 -12.27441,-31.63995c-10.87744,-28.25989 -21.71362,-56.53571 -32.65039,-84.77258c-2.58362,-6.67041 -3.08093,-12.90283 2.3385,-18.48816c8.10803,-8.35638 21.12341,-6.2995 26.79858,4.43042c1.69824,3.21057 2.75891,6.77466 3.95862,10.22998c8.7113,25.09113 17.37402,50.1991 26.08533,75.29022c0.74329,2.14081 1.72937,4.19739 3.18115,7.68133c7.99853,-22.31793 15.505,-43.28156 23.02612,-64.24005c2.80994,-7.83014 5.64197,-15.65241 8.48474,-23.47076c3.28088,-9.02252 9.56238,-14.31995 19.27747,-14.83508c9.2063,-0.48822 16.59521,4.50958 20.31885,14.58112c8.18994,22.1521 15.90625,44.47913 23.86182,66.71826c2.10815,5.89337 4.3833,11.72699 7.28833,19.47162c5.13208,-14.50232 9.68604,-27.29785 14.18823,-40.11157c5.40503,-15.38446 10.75635,-30.78778 16.15869,-46.1731c0.65918,-1.87695 1.29492,-3.80554 2.27612,-5.51849c4.32813,-7.55475 13.19824,-10.93335 20.43579,-7.91449c8.11401,3.38446 12.02002,10.53339 9.521,19.51843c-2.22095,7.98584 -5.55762,15.6615 -8.75073,24.16565z" id="Path-1" fill="#add6f0" data-index="1"></path><path d="M978.46855,406.38009c-0.0199,12.32843 0.17395,23.66315 -0.12366,34.98499c-0.22107,8.4079 -4.57837,13.57989 -12.52136,16.01208c-7.34436,2.2489 -15.37305,-1.37244 -17.85449,-8.63306c-1.15381,-3.3764 -1.45642,-7.1831 -1.45398,-10.79425c0.03479,-50.31598 0.18335,-100.6319 0.33069,-150.94775c0.00879,-2.99347 0.03455,-6.01282 0.4104,-8.97473c1.61902,-12.76025 10.37732,-21.24744 23.19312,-21.97284c7.97253,-0.45123 15.9884,-0.16046 23.98474,-0.16009c22.32581,0.00098 44.65332,-0.14093 66.97644,0.10998c10.73791,0.12067 16.7887,6.29736 16.49951,15.82483c-0.24646,8.11792 -5.28149,13.81726 -13.41602,14.74628c-3.62451,0.41394 -7.3197,0.27142 -10.98279,0.27435c-24.31018,0.01965 -48.62048,0.01025 -74.28137,0.01025c-0.19055,8.89002 -0.44275,17.41888 -0.53638,25.94946c-0.09119,8.29907 -0.0199,16.60004 -0.0199,25.86108c3.52881,0.3053 6.36829,0.74957 9.20984,0.76434c17.66052,0.09161 35.32129,0.08099 52.98206,0.12091c2.66455,0.00604 5.34802,-0.08716 7.98975,0.18543c8.89587,0.91803 15.09497,7.51349 14.94373,15.71393c-0.15686,8.5069 -6.16431,14.76813 -15.41711,14.91821c-19.32214,0.31335 -38.6521,0.15161 -57.97876,0.1828c-3.58838,0.0058 -7.17676,0.00092 -11.93152,0.00092c0,12.3078 0,23.56573 -0.00293,35.82288z" id="Path-1-1" fill="#add6f0" data-index="2" style="opacity: 1;"></path><path d="M516.18572,304.85769c43.79248,-6.76825 80.5852,27.17334 86.87854,61.75348c6.97363,38.3186 -14.18591,75.57605 -51.38269,88.56635c-35.37268,12.35321 -75.65405,-4.36914 -92.86621,-38.55237c-21.84277,-43.37964 3.53601,-98.5318 50.72998,-110.23718c1.93457,-0.4798 3.88025,-0.91406 6.64038,-1.53027M547.75688,423.69754c13.02722,-7.79919 20.83533,-19.22913 23.49988,-34.1272c3.80518,-21.27637 -7.13062,-42.33588 -26.33337,-50.93762c-18.42444,-8.25324 -38.98474,-3.02387 -51.84631,13.18677c-13.19153,16.62646 -13.57019,43.297 -0.98718,59.46631c13.16174,16.91315 36.81653,23.13818 55.66699,12.41174z" id="CompoundPath-1-1" fill="#12d57e" data-index="3" style="opacity: 1;"></path><path d="M721.94707,456.36392c-40.55896,11.91736 -94.7251,-15.53131 -96.9845,-70.09918c-1.76758,-42.6911 27.94421,-75.52557 65.64612,-81.60053c37.0741,-5.97375 75.06885,20.05249 84.4823,57.41095c9.28845,36.86163 -8.32336,73.77313 -43.14429,90.31921c-2.99524,1.42328 -6.13757,2.53699 -9.99963,3.96954M665.83367,353.54245c-5.91675,8.0852 -8.27039,17.34192 -8.75427,27.15662c-1.11694,22.65076 13.14868,41.92395 34.9762,47.37884c19.64111,4.90863 40.03211,-5.75427 48.86646,-25.55322c9.67285,-21.6781 2.36682,-48.29541 -16.44788,-60.3573c-21.5907,-13.84137 -45.19885,-6.85071 -58.6405,11.37506z" id="CompoundPath-1-2" fill="#12d57e" data-index="4" style="opacity: 1;"></path><path d="M1318.91265,415.29324c-13.00159,25.78003 -33.38257,40.03937 -61.14636,43.70807c-36.82434,4.86603 -73.07092,-19.70196 -82.66052,-55.85455c-13.51233,-50.94098 26.06238,-100.71545 78.60876,-98.8692c38.73547,1.36102 70.83679,34.46301 72.19043,74.35724c0.42432,12.50421 -1.55493,24.52606 -6.99231,36.65845M1276.21416,419.8569c12.92969,-10.89099 18.51416,-24.91376 17.43225,-41.61865c-1.72766,-26.67597 -26.21338,-46.72626 -51.3064,-42.63385c-35.04395,5.71515 -48.49707,48.49036 -29.35754,75.18567c14.42334,20.11737 39.00928,23.8949 63.23169,9.06683z" id="CompoundPath-1-3" fill="#add6f0" data-index="5" style="opacity: 1;"></path><path d="M236.37944,382.38064c0.02197,-32.31567 0.026,-63.63147 0.08588,-94.94702c0.00702,-3.65503 -0.00543,-7.36084 0.55505,-10.95514c2.04096,-13.08807 9.64032,-20.27954 22.92987,-20.43372c29.31189,-0.33997 58.63098,-0.25067 87.9455,-0.07068c9.0379,0.05542 15.54193,6.69012 15.59253,14.88263c0.05377,8.72168 -6.51264,15.75952 -15.86218,15.87604c-21.31781,0.26563 -42.6413,0.07312 -63.96252,0.06726c-4.60382,-0.00128 -9.20758,-0.00018 -14.56537,-0.00018c0,17.59064 0,34.38904 0,52.12958c2.68317,0.20703 5.56311,0.60852 8.44488,0.62225c17.32288,0.0827 34.64618,0.0556 51.96918,0.11829c3.32556,0.01202 6.70465,-0.07062 9.96454,0.46527c7.6225,1.25311 12.3996,6.93842 12.59265,14.46423c0.19879,7.74884 -3.95856,13.43524 -11.6579,15.18628c-3.19873,0.72742 -6.61127,0.68213 -9.9278,0.69592c-16.65698,0.06927 -33.31439,0.04224 -49.97162,0.0484c-3.63251,0.00134 -7.26501,0.00018 -11.65137,0.00018c-0.21454,3.64264 -0.52472,6.53485 -0.53272,9.42786c-0.05426,19.65546 -0.12946,39.31158 -0.00268,58.96625c0.03662,5.677 -1.37335,10.62079 -5.76373,14.27783c-4.56903,3.80573 -9.81909,5.61957 -15.7843,3.66132c-6.0423,-1.98346 -8.92932,-6.72028 -10.12946,-12.54352c-0.52936,-2.5683 -0.29657,-5.30725 -0.29773,-7.96869c-0.00763,-17.65686 0.01514,-35.31372 0.0293,-53.97064z" id="Path-1-2" fill="#12d57e" data-index="6"></path><path d="M807.04595,325.70462c14.13354,-19.94714 45.1123,-28.67017 71.92322,-17.97339c8.49451,3.3891 16.55701,8.50092 23.84216,14.09442c6.81653,5.23377 7.05652,11.44556 2.94519,18.68469c-5.02551,8.84875 -12.49377,10.86603 -20.86548,4.89905c-7.37329,-5.25537 -14.61792,-10.90338 -23.79785,-11.9021c-6.10547,-0.66425 -12.52576,-0.12183 -18.59155,1.0177c-5.85046,1.0993 -8.58276,5.65839 -8.9082,11.70874c-0.3147,5.8493 2.41809,9.71429 7.5813,11.58203c8.74426,3.16296 17.6759,5.80341 26.48303,8.79791c7.22974,2.45813 14.67835,4.51679 21.52649,7.80212c14.2992,6.85999 24.57544,17.32977 25.36804,34.20325c0.8147,17.34699 -6.38721,31.08881 -20.75146,40.69434c-16.55505,11.0705 -35.11291,11.58905 -53.89075,8.44177c-13.62549,-2.28375 -26.0885,-7.84448 -36.96008,-16.55206c-5.71607,-4.57837 -6.02478,-5.87946 -2.93286,-12.68311c1.2207,-2.68646 2.75073,-5.38293 4.71777,-7.55035c5.15381,-5.67895 9.70801,-5.95312 16.89209,-2.87085c9.41479,4.03918 18.85632,8.47449 28.74255,10.79864c6.80371,1.59949 14.50977,0.6604 21.57715,-0.53552c6.7948,-1.1499 10.82434,-6.3363 11.62549,-13.32873c0.70471,-6.14819 -2.81653,-11.44977 -10.0896,-14.42389c-6.75024,-2.76031 -13.82593,-4.71961 -20.74121,-7.08203c-9.11719,-3.11456 -18.33801,-5.97101 -27.30286,-9.47864c-27.02563,-10.57434 -28.99365,-35.9256 -21.11816,-53.32691c0.68494,-1.51318 1.51404,-2.96112 2.72559,-5.01709z" id="Path-1-3" fill="#12d57e" data-index="7" style="opacity: 1;"></path><path d="M410.02373,246.50961c7.38953,2.47717 8.12439,7.82904 8.09766,13.85266c-0.10791,24.28436 -0.05298,48.56934 -0.07861,72.85413c-0.02991,28.27673 -0.00439,56.55402 -0.19495,84.82977c-0.03357,4.98438 0.52881,8.94836 5.62671,11.48608c5.29553,2.63629 6.87354,7.85773 7.27966,13.39008c0.521,7.09717 -3.42175,12.3623 -10.61804,13.14386c-5.24609,0.5697 -10.71564,0.67169 -15.9046,-0.1543c-10.92957,-1.73993 -17.70404,-8.84296 -19.56183,-19.77637c-0.60846,-3.58087 -0.66882,-7.28607 -0.66901,-10.93439c-0.00244,-50.89813 0.04889,-101.79633 0.08862,-152.69446c0.00079,-0.99792 0.0061,-1.99634 0.03394,-2.99377c0.46918,-16.81 8.21796,-23.9436 25.90045,-23.0033z" id="Path-1-4" fill="#12d57e" data-index="8"></path><path d="M1136.10161,350.38089c0.01099,22.62555 0.17004,44.25269 -0.06604,65.87555c-0.06836,6.25543 1.63708,10.33063 7.43591,13.69598c9.78088,5.67645 10.96606,16.35236 3.48572,23.31317c-0.72632,0.6756 -1.5011,1.33685 -2.35327,1.83368c-9.59033,5.59106 -31.45984,0.82971 -37.23657,-8.53876c-1.99988,-3.24371 -2.93603,-7.35962 -3.51685,-11.20422c-0.64062,-4.24115 -0.39722,-8.62824 -0.39697,-12.95178c0.00268,-49.90521 0.02637,-99.81042 0.06714,-149.71564c0.00305,-3.65717 -0.16882,-7.36444 0.34619,-10.96173c1.4895,-10.40039 13.17725,-17.72662 23.21948,-14.79419c6.35266,1.85504 8.94885,5.47266 8.98804,13.61688c0.10742,22.29041 0.03259,44.58167 0.02954,66.87262c-0.00098,7.31946 -0.00305,14.63898 -0.00232,22.95844z" id="Path-1-5" fill="#add6f0" data-index="9" style="opacity: 1;"></path><path d="M75.48131,488.8992c-14.16052,-16.20361 -15.02936,-33.8432 -6.41351,-51.62891c7.3667,-15.20691 16.32086,-29.6817 25.18005,-44.10748c2.86163,-4.65985 7.15216,-8.83398 11.64179,-12.03387c18.65985,-13.29987 40.14111,3.57745 40.29077,21.28253c0.09149,10.82105 -3.49066,20.31775 -10.2486,28.45239c-5.29431,6.37286 -11.19733,12.27655 -17.15295,18.05579c-11.41943,11.08148 -21.35187,22.7193 -22.05737,39.86975c-0.25372,6.16705 -4.62555,8.65003 -10.50494,6.58637c-3.65253,-1.28204 -6.82642,-3.92792 -10.73523,-6.47656z" id="Path-1-6" fill="#249bd5" data-index="10"></path><path d="M159.95549,221.95156c4.66772,15.96277 -1.37225,29.05151 -19.35632,38.5979c-7.67645,1.31787 -13.75244,3.37189 -19.93756,3.78278c-16.47131,1.09436 -32.98499,1.81439 -49.49078,2.04651c-13.78973,0.19391 -27.80304,1.55591 -41.05634,-4.08283c0,0 -0.13055,0.05658 -0.43237,-0.3819c-0.75598,-0.8844 -1.26758,-1.25006 -1.83649,-1.53552c0,0 0.10107,-0.01605 -0.17017,-0.38556c-0.69061,-0.89752 -1.20087,-1.31421 -1.80188,-1.61969c0,0 0.07159,-0.00305 0.0296,-0.74017c-3.15759,-8.6828 0.17303,-15.98059 4.22748,-21.88184c7.40643,-10.78033 18.66998,-17.78613 31.51648,-18.85107c13.38184,-1.10937 27.01367,0.79779 41.19641,1.64832c7.26843,4.68957 14.5918,6.32654 22.45233,5.79504c11.55432,-0.78113 23.10651,-1.59314 34.65961,-2.39197z" id="Path-1-7" fill="#78d252" data-index="11"></path><path d="M-73.73677,261.04647c-1.98993,-15.84186 -4.19922,-31.66064 -5.87378,-47.53577c-0.79163,-7.50452 1.58325,-14.44592 6.06494,-20.63507c10.53571,-14.54999 29.4483,-16.33557 42.69324,-4.09985c6.64777,6.14124 10.88837,13.69409 11.9552,22.48688c2.52344,20.79901 4.51153,41.66443 6.54401,62.51978c0.28564,2.93097 -0.22388,5.98145 -0.6615,8.93274c-1.22919,8.28894 -5.36731,14.22217 -15.02759,15.91009c-4.93335,-11.97247 -10.34229,-22.18732 -20.54321,-29.53033c-7.64679,-5.50433 -16.46118,-6.34802 -25.15131,-8.04846z" id="Path-1-8" fill="#78d252" data-index="12"></path><path d="M147.15288,341.84329c4.35535,8.0813 4.51154,15.44196 -0.96088,22.09686c-5.47717,6.66065 -13.00641,8.05383 -20.86365,5.70349c-17.13287,-5.125 -29.12842,1.87079 -38.28393,15.62299c-3.85895,5.79651 -6.86365,12.15442 -10.51617,18.09766c-4.13586,6.72962 -9.47937,12.04053 -17.86035,13.03272c-14.20117,1.68121 -25.5639,-7.49683 -26.841,-21.76959c-0.98187,-10.97406 2.66772,-20.63635 10.44238,-28.02991c5.1889,-4.93469 11.49835,-9.1239 18.00055,-12.15991c16.53235,-7.71942 33.5639,-14.36279 50.18567,-21.8999c12.5708,-5.70026 25.35663,-5.12695 36.69739,9.3056z" id="Path-1-9" fill="#78d252" data-index="13"></path><path d="M-56.99775,420.84341c0.35669,-4.53442 0.49506,-8.20789 1.03784,-11.82062c3.48218,-23.17621 22.61994,-40.29687 45.84222,-41.10126c8.91278,-0.30865 16.45953,2.68671 21.60303,10.09473c6.33441,9.12329 3.39032,19.35333 -6.66467,23.9729c-3.61658,1.66156 -7.48102,2.77429 -11.1734,4.28186c-10.08814,4.11908 -13.68842,10.61688 -11.33093,21.34363c0.99213,4.51404 3.07111,8.77826 4.40643,13.2309c1.23334,4.11218 2.69135,8.27527 3.06317,12.50281c0.77551,8.81616 -3.58087,16.37061 -10.95721,19.52228c-8.10156,3.46155 -15.7038,2.02692 -22.35004,-3.59326c-5.52014,-4.66791 -9.11298,-10.85181 -10.23804,-17.86932c-1.57349,-9.81433 -2.22412,-19.77661 -3.2384,-30.56464z" id="Path-1-10" fill="#249bd5" data-index="14"></path><path d="M-90.27589,366.35092c2.88141,-3.53003 5.19586,-7.8407 8.76062,-10.42999c7.76923,-5.64355 16.04095,-10.64227 24.36359,-15.46222c6.60712,-3.82642 13.67847,-6.84161 20.39703,-10.4873c16.14063,-8.75848 29.39575,-20.52246 38.00165,-37.06049c5.69043,-10.93561 14.40155,-17.19189 27.97009,-16.28058c0.92334,1.0946 0.98193,1.44348 0.99909,1.89594c-0.04144,0.10358 -0.25653,0.1629 -0.93976,0.16711c-5.8288,2.47711 -10.1275,5.69446 -11.20337,12.34851c-0.24731,0.8219 -0.38184,1.13928 -1.14984,1.59009c-2.18799,1.79907 -3.90869,3.33978 -5.27033,5.15057c-9.49988,12.63367 -7.17474,22.56836 8.57922,26.23822c0.64264,0.14972 1.31567,0.17407 1.95331,0.33929c9.49652,2.46057 17.04425,7.11639 19.55023,17.42401c-10.50995,7.43713 -22.90308,9.61719 -35.03107,12.51495c-14.36328,3.4317 -28.74145,6.80102 -44.50311,9.966c-10.09454,-4.80725 -19.30438,-6.8598 -28.97754,-4.5852c-7.9184,1.86188 -15.67273,4.42102 -23.49982,6.67108z" id="Path-1-11" fill="#91df6e" data-index="15"></path><path d="M-90.19777,366.37332c7.74896,-2.27246 15.5033,-4.8316 23.42169,-6.69348c9.67316,-2.2746 18.883,-0.22205 28.22302,4.78339c-16.55682,10.44226 -25.35431,25.53986 -26.56909,45.25793c-0.08124,1.31824 -0.45532,2.62244 -0.73602,3.92389c-1.28119,5.94147 -4.21057,10.6247 -10.46289,12.10712c-6.21844,1.47443 -11.21265,-1.4154 -15.01318,-5.88531c-8.62863,-10.14825 -10.35745,-22.20166 -7.70389,-34.78058c1.14377,-5.42181 4.04416,-10.47302 7.05801,-16.44556c1.4303,-1.18872 1.76605,-1.73663 1.91876,-2.39679c0,0 -0.05829,0.15179 -0.13641,0.1294z" id="Path-1-12" fill="#12d57e" data-index="16"></path><path d="M102.18334,218.28616c-13.52252,-0.58819 -27.15436,-2.49536 -40.53619,-1.38599c-12.8465,1.06494 -24.11005,8.07074 -31.51648,18.85107c-4.05444,5.90125 -7.38507,13.19904 -4.23834,21.91602c-7.67548,-8.93994 -8.44959,-19.29785 -1.68018,-30.28668c9.13751,-14.83301 22.85669,-23.80029 39.2077,-28.81012c19.32477,-5.92096 39.30688,-5.70465 59.20459,-5.09216c5.49915,0.16925 10.9353,2.38342 16.00024,4.2273c-3.3811,0.659 -6.45526,0.30963 -9.32654,0.91797c-11.89539,2.52026 -23.34906,5.85205 -27.11481,19.6626z" id="Path-1-13" fill="#91df6e" data-index="17"></path><path d="M54.20348,500.22494c-4.13886,10.18878 -12.5318,12.68878 -22.45776,12.44415c-9.85486,-0.24292 -15.71191,-6.00427 -19.44843,-14.38751c-1.18848,-2.66656 -1.59064,-5.68359 -2.46075,-9.36127c-0.10815,-0.82105 -0.09204,-0.57575 -0.09204,-0.57575c-0.01239,-6.74139 -0.02478,-13.48279 0.20093,-21.79974c5.2052,-9.23682 5.49353,-9.30286 13.49829,-6.9809c2.77838,0.80591 5.66241,1.2478 9.18585,2.09967c2.96246,1.08807 5.23737,1.93231 7.58856,3.42541c2.62824,2.76202 5.18012,4.87518 7.96936,7.55713c1.41339,1.67798 2.58942,2.78723 3.79138,4.65576c1.58575,6.35706 3.14563,11.95477 4.70544,17.55249c-0.08661,0.42645 -0.17316,0.85284 -0.91748,1.98279c-0.9596,1.59833 -1.26148,2.49304 -1.56335,3.38776z" id="Path-1-14" fill="#12d57e" data-index="18"></path><path d="M17.55663,292.4985c0.13458,-0.31732 0.2691,-0.63471 1.15289,-1.62512c4.24951,-4.51013 7.74982,-8.34717 11.25012,-12.1842c0,0 0.21509,-0.05933 1.01331,-0.17303c2.81665,-0.28455 4.83502,-0.45538 6.85345,-0.62622c0,0 0.43005,-0.00501 0.81598,0.60706c1.36444,0.87512 2.34296,1.13818 3.32147,1.40131c0,0 0.31616,-0.02069 0.61407,0.54572c1.18475,0.89294 2.07159,1.21948 2.9585,1.54596c18.86737,14.1153 20.44257,37.07696 2.49475,54.12775c-8.79614,-8.07159 -17.35742,-14.37848 -28.71551,-15.87598c-0.93976,-0.12396 -1.83887,-0.69617 -2.71466,-1.14288c-7.14728,-3.64557 -8.47601,-8.1341 -4.68317,-15.29486c1.97058,-3.72028 3.76489,-7.534 5.63879,-11.30548z" id="Path-1-15" fill="#12d57e" data-index="19"></path><path d="M134.26506,274.30416c7.46271,0.54401 14.00915,1.09662 21.4975,1.72876c-0.34631,3.37207 -0.19781,5.97772 -0.92535,8.31c-3.19165,10.23126 -9.34277,18.51721 -18.82544,23.40418c-4.43219,2.28406 -10.10944,3.31061 -15.1181,3.03204c-6.66119,-0.3706 -11.59235,-4.58478 -13.8244,-11.20886c-2.2572,-6.69879 -0.20917,-12.41437 4.47809,-17.2959c5.93603,-6.18213 13.64441,-7.74103 22.71771,-7.97022z" id="Path-1-16" fill="#249bd5" data-index="20"></path><path d="M102.84355,218.54849c3.10553,-14.07288 14.5592,-17.40466 26.45459,-19.92493c2.87128,-0.60834 5.94543,-0.25897 9.80512,-0.36829c11.7254,3.67719 17.82257,11.63867 20.88635,22.99524c-11.58722,1.49988 -23.1394,2.31189 -34.69372,3.09302c-7.86054,0.5315 -15.1839,-1.10547 -22.45233,-5.79504z" id="Path-1-17" fill="#12d57e" data-index="21"></path><path d="M-73.75923,261.75088c8.71258,0.99603 17.52698,1.83972 25.17377,7.34406c10.20093,7.34302 15.60986,17.55786 19.77655,29.6673c-16.94104,5.79187 -36.50775,-8.95123 -42.74127,-27.66284c-0.93835,-2.81659 -1.49713,-5.75964 -2.20905,-9.34851z" id="Path-1-18" fill="#12d57e" data-index="22"></path><path d="M40.14177,464.44015c-2.27484,-0.84424 -4.54974,-1.68848 -7.75134,-3.35162c-6.41992,-4.23126 -12.10236,-7.07147 -18.8335,-6.74042c6.8476,-16.17084 24.71381,-15.18506 33.96246,-5.31909c5.16321,5.50781 7.76074,12.08148 8.54364,20.8927c0.36725,3.0935 0.86499,4.73962 1.36279,6.38568c0.1037,0.41913 0.20746,0.8382 -0.14587,2.10297c-2.08044,-0.05884 -3.70374,-0.96326 -5.32703,-1.86774c-1.17602,-1.10925 -2.35205,-2.21851 -3.87219,-4.53699c-2.87573,-3.328 -5.40735,-5.44678 -7.93896,-7.56549z" id="Path-1-19" fill="#91df6e" data-index="23"></path><path d="M30.51628,262.8533c12.8515,5.08136 26.86481,3.71936 40.65454,3.52545c16.5058,-0.23212 33.01947,-0.95215 49.49078,-2.04651c6.18512,-0.41089 12.26111,-2.46491 19.26617,-3.78223c-5.6449,4.66779 -13.3576,5.11414 -20.87543,5.53101c-21.14661,1.17255 -42.31531,1.95081 -63.47668,2.85211c-8.7038,0.37073 -17.25287,-0.04694 -25.05939,-6.07983z" id="Path-1-20" fill="#91df6e" data-index="24"></path><path d="M16.92321,292.63198c-1.24048,3.638 -3.03479,7.45172 -5.00537,11.172c-3.79285,7.16077 -2.46411,11.64929 4.68317,15.29486c0.87579,0.44672 1.7749,1.01892 2.71466,1.14288c11.35809,1.4975 19.91937,7.80438 28.09259,16.1875c-1.11114,1.9165 -2.82019,3.48688 -5.10095,5.20605c-3.07764,-10.15881 -10.62537,-14.81464 -20.12189,-17.27521c-0.63763,-0.16522 -1.31067,-0.18957 -1.95331,-0.33929c-15.75397,-3.66986 -18.0791,-13.60455 -8.57922,-26.23822c1.36163,-1.81079 3.08234,-3.3515 5.27033,-5.15057z" id="Path-1-21" fill="#78d252" data-index="25"></path><path d="M13.05297,454.71609c7.23511,-0.69904 12.91754,2.14117 18.64984,6.12866c-2.59668,-0.03302 -5.48071,-0.47491 -8.25909,-1.28082c-8.00476,-2.32196 -8.29309,-2.25592 -13.3797,5.85431c0.74872,-3.14533 1.61682,-6.73975 2.98895,-10.70215z" id="Path-1-22" fill="#78d252" data-index="26"></path><path d="M51.97887,477.30191c1.59735,0.1452 3.22064,1.04962 5.24371,1.75354c0.34937,4.76752 0.29901,9.73553 -0.14478,15.25128c-1.95331,-5.05005 -3.51318,-10.64777 -5.09894,-17.00482z" id="Path-1-23" fill="#78d252" data-index="27"></path><path d="M37.45568,277.52847c-1.64771,0.53229 -3.66608,0.70313 -6.44128,0.88409c-0.81537,-0.33874 -0.87396,-0.68762 -0.97748,-1.56488c2.31934,-0.24579 4.68372,0.03674 7.41876,0.68079z" id="Path-1-24" fill="#78d252" data-index="28"></path><path d="M57.55364,475.65506c-0.62561,-0.99371 -1.12335,-2.63983 -1.5188,-4.95325c0.61713,0.98865 1.13184,2.64477 1.5188,4.95325z" id="Path-1-25" fill="#78d252" data-index="29"></path><path d="M54.53978,500.11514c-0.03442,-0.78491 0.26746,-1.67963 0.89813,-2.71411c0.03192,0.7749 -0.26495,1.68964 -0.89813,2.71411z" id="Path-1-26" fill="#78d252" data-index="30"></path><path d="M45.30693,281.57009c-0.65741,0.09338 -1.54425,-0.23315 -2.66101,-0.98297c0.65723,-0.09454 1.54437,0.23431 2.66101,0.98297z" id="Path-1-27" fill="#78d252" data-index="31"></path><path d="M9.68755,488.27139c0.05695,0.07318 0.04083,-0.17212 0.03406,-0.2337c-0.00684,-0.06158 -0.09094,0.16052 -0.03406,0.2337z" id="Path-1-28" fill="#78d252" data-index="32"></path><path d="M41.63384,279.52432c-0.6485,0.11084 -1.62701,-0.15222 -2.86352,-0.85449c0.67255,-0.13263 1.60309,0.17401 2.86352,0.85449z" id="Path-1-29" fill="#78d252" data-index="33"></path><path d="M-90.55385,366.40603c0.33978,0.49805 0.00403,1.04596 -0.93152,1.73731c-0.13153,-0.35468 0.15375,-0.96491 0.93152,-1.73731z" id="Path-1-30" fill="#91df6e" data-index="34"></path><path d="M26.04155,258.8699c0.43304,-0.19116 0.9433,0.22552 1.62866,1.17395c-0.30951,0.05457 -0.88513,-0.3114 -1.62866,-1.17395z" id="Path-1-31" fill="#91df6e" data-index="35"></path><path d="M28.04381,260.84127c0.37073,-0.17731 0.88232,0.18836 1.63403,1.00171c-0.28021,0.06531 -0.85803,-0.23682 -1.63403,-1.00171z" id="Path-1-32" fill="#91df6e" data-index="36"></path><path d="M666.25664,352.94455c13.01868,-17.62787 36.62683,-24.61853 58.21753,-10.77716c18.8147,12.06189 26.12073,38.6792 16.44788,60.3573c-8.83435,19.79895 -29.22534,30.46185 -48.86646,25.55322c-21.82751,-5.45489 -36.09314,-24.72809 -34.9762,-47.37884c0.48389,-9.8147 2.83752,-19.07141 9.17725,-27.75452z" id="Path-1-34" fill="#101113" data-index="38" style="opacity: 1; stroke-width: 2px; stroke: rgb(13, 153, 255); visibility: hidden;"></path><path d="M29.27642,278.69339c-2.81708,3.83282 -6.31738,7.66986 -10.45416,11.67542c0.32666,-5.98096 4.62537,-9.1983 10.45416,-11.67542z" id="Path-1-36" fill="#78d252" data-index="40"></path><path d="M40.21813,465.08902c2.45526,1.46985 4.98688,3.58862 7.62524,6.34784c-2.44513,-1.47266 -4.99701,-3.58582 -7.62524,-6.34784z" id="Path-1-37" fill="#78d252" data-index="41"></path></g></g></g></g></svg>
